<?xml version="1.0" encoding="utf-8"?>
<!-- Generator: Adobe Illustrator 16.0.0, SVG Export Plug-In . SVG Version: 6.00 Build 0)  -->
<!DOCTYPE svg PUBLIC "-//W3C//DTD SVG 1.1//EN" "http://www.w3.org/Graphics/SVG/1.1/DTD/svg11.dtd">
<svg version="1.1" id="Layer_1" xmlns="http://www.w3.org/2000/svg" xmlns:xlink="http://www.w3.org/1999/xlink" x="0px" y="0px"
	 width="1672.5px" height="458.1px" viewBox="136.6 331.9 1672.5 458.1" style="enable-background:new 136.6 331.9 1672.5 458.1;"
	 xml:space="preserve">
<path d="M887.6,556.6c0,31.4-8.5,55.4-25.6,72c-17,16.6-41.6,24.9-73.6,24.9h-52.7V463.3H794c29.6,0,52.6,8.2,69,24.6
	C879.4,504.3,887.6,527.2,887.6,556.6z M864.2,557.4c0-24.8-6.2-43.5-18.7-56.1c-12.4-12.6-30.9-18.9-55.5-18.9h-32.1v152h26.9
	c26.4,0,46.2-6.5,59.5-19.4C857.5,602,864.2,582.8,864.2,557.4z"/>
<path d="M944.1,574.4v79.1H922V463.3h52.2c23.3,0,40.6,4.5,51.7,13.4c11.1,8.9,16.7,22.4,16.7,40.3c0,25.2-12.7,42.2-38.2,51
	l51.6,85.5h-26.1l-46.1-79.1H944.1z M944.1,555.4h30.3c15.6,0,27.1-3.1,34.3-9.3c7.3-6.2,10.9-15.5,10.9-27.9
	c0-12.6-3.7-21.6-11.1-27.2c-7.4-5.5-19.3-8.3-35.7-8.3H944L944.1,555.4L944.1,555.4z"/>
<path d="M1210.3,653.5l-23.7-60.5h-76.2l-23.4,60.5h-22.4l75.2-191h18.6l74.8,191H1210.3z M1179.7,573.1l-22.1-58.9
	c-2.9-7.5-5.8-16.6-8.8-27.5c-1.9,8.3-4.6,17.5-8.2,27.5l-22.4,58.9H1179.7z"/>
<path d="M1398.6,565.8v80.5c-10.1,3.2-20.3,5.6-30.7,7.3c-10.4,1.6-22.5,2.5-36.2,2.5c-28.8,0-51.2-8.6-67.3-25.7
	c-16-17.1-24.1-41.1-24.1-72c0-19.8,4-37.1,11.9-52c7.9-14.9,19.4-26.2,34.3-34.1c14.9-7.8,32.4-11.8,52.4-11.8
	c20.3,0,39.2,3.7,56.7,11.2l-8.6,19.5c-17.2-7.3-33.7-10.9-49.6-10.9c-23.2,0-41.2,6.9-54.2,20.7s-19.5,32.9-19.5,57.4
	c0,25.7,6.3,45.1,18.8,58.4s30.9,19.9,55.2,19.9c13.2,0,26.1-1.5,38.6-4.6v-66.4L1398.6,565.8L1398.6,565.8z"/>
<path d="M1589.1,556.6c0,31.4-8.5,55.4-25.6,72c-17,16.6-41.6,24.9-73.6,24.9h-52.7V463.3h58.3c29.6,0,52.6,8.2,69,24.6
	C1580.9,504.3,1589.1,527.2,1589.1,556.6z M1565.7,557.4c0-24.8-6.2-43.5-18.7-56.1c-12.4-12.6-30.9-18.9-55.5-18.9h-32.1v152h26.9
	c26.4,0,46.2-6.5,59.5-19.4C1559.1,602,1565.7,582.8,1565.7,557.4z"/>
<path d="M1627.5,653.5V463.3h22.1v190.2H1627.5z"/>
<path d="M1809.1,602.9c0,16.7-6.1,29.8-18.2,39.2c-12.1,9.4-28.6,14-49.4,14c-22.6,0-39.9-2.9-52-8.7v-21.3
	c7.8,3.3,16.3,5.9,25.5,7.8c9.2,1.9,18.3,2.9,27.3,2.9c14.7,0,25.8-2.8,33.3-8.4c7.5-5.6,11.2-13.4,11.2-23.4c0-6.6-1.3-12-4-16.2
	c-2.6-4.2-7.1-8.1-13.3-11.6c-6.2-3.6-15.6-7.6-28.3-12.1c-17.7-6.3-30.3-13.8-37.9-22.5c-7.6-8.7-11.4-20-11.4-34
	c0-14.7,5.5-26.3,16.5-35c11-8.7,25.6-13,43.7-13c18.9,0,36.3,3.5,52.2,10.4l-6.9,19.3c-15.7-6.6-31-9.9-45.8-9.9
	c-11.7,0-20.9,2.5-27.5,7.5s-9.9,12-9.9,20.9c0,6.6,1.2,12,3.6,16.2c2.4,4.2,6.5,8.1,12.3,11.6c5.8,3.5,14.6,7.4,26.5,11.6
	c19.9,7.1,33.7,14.7,41.2,22.9C1805.4,579.3,1809.1,589.9,1809.1,602.9z"/>
<polygon points="534.7,556.2 595.7,496.9 595.7,332 430,332 370.6,393 534.7,393 "/>
<polygon points="534.7,641.7 534.7,729 197.7,729 197.7,393 285.2,393 344.5,332 136.7,332 136.7,790 595.7,790 595.7,582.3 "/>
</svg>
